<svg xmlns="http://www.w3.org/2000/svg" version="1.1" xlink="http://www.w3.org/1999/xlink" 
  xmlns:svgjs="http://svgjs.com/svgjs" width="100%" height="100%" preserveAspectRatio="xMidYMid meet" viewBox="0 0 265.4367980957031 147.00148010253906" overflow="visible">
  <defs id="SvgjsDefs34290">
    <linearGradient id="SvgjsLinearGradientTIOh7voVg" gradientUnits="userSpaceOnUse" x1="2.8421709430404e-14" y1="267.7" x2="267.7" y2="-1.4210854715202e-14">
      <stop id="SvgjsStop34293" stop-color="#b5ad4f" offset="0.05"></stop>
      <stop id="SvgjsStop34294" stop-color="#5d5927" offset="0.95"></stop>
    </linearGradient>
  </defs>
  <g id="SvgjsG34291" transform="scale(0.6411981612465666)" opacity="1">
    <g id="SvgjsG34295" class="6IeVGf1Hn" transform="translate(132.4717608842573, 0) scale(0.5567079977392211)" light-content="false" fill="url(#SvgjsLinearGradientTIOh7voVg)">
      <circle cx="133.8" cy="133.8" r="133.8"></circle>
    </g>
    <g id="SvgjsG34296" class="cl1BMn3jaC" transform="translate(157.38118306481502, 24.909422180557684) scale(0.9921188663367412)" light-content="true" fill="#ffffff">
      <path d="M21.667 73.809V33.867l28.33-16.188 28.337 16.188V66.13L49.997 82.321 35 73.75V41.604l14.997-8.57L65 41.604v16.788l-15.003 8.571-1.663-.95v-16.67l8.382-4.792-6.719-3.838-8.33 4.763V69.88l8.33 4.762 21.67-12.383V37.737l-21.67-12.379-21.663 12.379v39.88L49.997 90 85 70V30L49.997 10 15 30v40z"></path>
    </g>
    <g id="SvgjsG34297" class="text" transform="translate(209.43, 229.2605917576867) scale(1)" light-content="false" fill="#ffffff">
      <path d="M-193.83 -46.43L-193.83 0L-185.36 0L-185.36 -46.43L-169.68 -46.43L-169.68 -54.35L-209.43 -54.35L-209.43 -46.43Z M-162.38 -54.35L-162.38 0L-153.92 0L-153.92 -24.3L-127.52 -24.3L-127.52 0L-119.06 0L-119.06 -54.35L-127.52 -54.35L-127.52 -32.3L-153.92 -32.3L-153.92 -54.35Z M-106.79 -54.35L-106.79 0L-98.33 0L-98.33 -54.35Z M-86.14 -54.35L-86.14 0L-77.68 0L-77.68 -40.53L-50.74 0L-43.59 0L-43.59 -54.35L-52.13 -54.35L-52.13 -16.07L-77.45 -54.35Z M-31.41 -54.35L-31.41 0L-22.94 0L-22.94 -24.3L3.45 -24.3L3.45 0L11.92 0L11.92 -54.35L3.45 -54.35L3.45 -32.3L-22.94 -32.3L-22.94 -54.35Z M34.82 -46.43L34.82 0L43.28 0L43.28 -46.43L58.97 -46.43L58.97 -54.35L19.22 -54.35L19.22 -46.43Z M66.27 -54.35L66.27 0L74.96 0L74.96 -20.73L85.36 -20.73L85.75 -20.73L96.54 0L106.41 0L94.22 -22.67C100.48 -25.67 103.61 -30.72 103.61 -37.81C103.61 -43.35 101.95 -47.49 98.64 -50.23C95.33 -52.98 90.72 -54.35 84.82 -54.35ZM83.66 -28.11L74.96 -28.11L74.96 -47.05L83.81 -47.05C87.49 -47.05 90.23 -46.23 92.04 -44.6C93.85 -42.97 94.76 -40.63 94.76 -37.58C94.76 -34.63 93.84 -32.31 92 -30.63C90.17 -28.95 87.38 -28.11 83.66 -28.11Z M141.96 -13.9L146.86 0L155.47 0L135.99 -54.35L127.52 -54.35L108.11 0L116.65 0L121.54 -13.9ZM139.32 -21.43L124.26 -21.43L131.79 -42.78Z M161.99 -54.35L161.99 0L170.46 0L170.46 -40.53L197.4 0L204.54 0L204.54 -54.35L196 -54.35L196 -16.07L170.69 -54.35Z"></path>
    </g>
  </g>
</svg>